<?xml version="1.0" standalone="no"?>
<!DOCTYPE svg PUBLIC "-//W3C//DTD SVG 20010904//EN"
 "http://www.w3.org/TR/2001/REC-SVG-20010904/DTD/svg10.dtd">
<svg version="1.0" xmlns="http://www.w3.org/2000/svg"
 width="512.000000pt" height="512.000000pt" viewBox="0 0 512.000000 512.000000"
 preserveAspectRatio="xMidYMid meet"
>
<!--    TODO add to each card:-->
<rect width="67%" height="97%" x="85" y="10" fill="white"></rect>
<g transform="translate(0.000000,512.000000) scale(0.100000,-0.100000)"
fill="#000000" stroke="none">
<path d="M876 5108 c-51 -14 -118 -81 -134 -134 -18 -60 -18 -4768 0 -4828 18
-58 82 -120 140 -134 67 -17 3289 -17 3356 0 58 14 122 76 140 134 18 60 18
4768 0 4828 -18 58 -82 120 -140 134 -62 16 -3303 15 -3362 0z m3365 -137 l29
-29 0 -2382 0 -2382 -29 -29 -29 -29 -1652 0 -1652 0 -29 29 -29 29 0 2382 0
2382 29 29 29 29 1652 0 1652 0 29 -29z"/>
<path d="M1385 4581 c-108 -49 -164 -171 -131 -283 42 -145 198 -214 334 -147
l52 26 0 -26 c0 -40 -28 -138 -47 -168 -35 -53 -140 -70 -201 -33 -43 26 -77
25 -96 -2 -24 -34 -19 -54 20 -86 60 -50 159 -66 246 -40 56 17 131 87 157
148 70 163 42 433 -58 551 -62 74 -186 101 -276 60z m188 -143 c50 -59 31
-150 -39 -183 -47 -22 -98 -13 -135 24 -36 36 -45 73 -30 121 27 91 141 112
204 38z"/>
<path d="M1804 3743 c-35 -7 -68 -49 -68 -88 0 -26 9 -44 33 -69 57 -58 18
-106 -40 -50 -42 40 -101 40 -135 1 -45 -53 -20 -138 46 -152 32 -7 62 5 101
42 27 25 53 23 63 -3 7 -18 -6 -46 -47 -96 -42 -52 -27 -68 63 -68 112 0 124
14 65 83 -36 42 -44 74 -23 95 17 17 23 15 62 -19 51 -44 95 -48 136 -12 26
23 32 36 32 68 0 32 -6 45 -32 68 -27 24 -39 28 -68 23 -19 -3 -47 -17 -63
-32 -56 -53 -92 -7 -40 52 50 57 39 123 -24 150 -19 8 -36 13 -37 13 -2 -1
-13 -4 -24 -6z"/>
<path d="M3263 3742 c-12 -2 -34 -17 -49 -35 -34 -40 -28 -87 17 -133 27 -28
30 -36 19 -49 -17 -20 -46 -19 -62 3 -34 48 -85 53 -129 14 -25 -22 -31 -36
-31 -67 0 -31 6 -45 31 -67 41 -37 70 -35 121 7 46 39 51 40 68 23 21 -21 13
-57 -23 -97 -59 -65 -47 -81 65 -81 94 0 105 15 56 77 -38 49 -47 96 -20 107
9 4 34 -8 62 -30 39 -30 53 -35 82 -30 106 16 105 166 -1 182 -30 5 -41 1 -71
-25 -38 -33 -57 -38 -76 -19 -17 17 -16 20 23 62 36 40 43 68 24 109 -16 34
-63 56 -106 49z"/>
<path d="M1804 3113 c-35 -7 -68 -49 -68 -88 0 -26 9 -44 33 -69 57 -58 18
-106 -40 -50 -42 40 -101 40 -135 1 -45 -53 -20 -138 46 -152 32 -7 62 5 101
42 27 25 53 23 63 -3 7 -18 -6 -46 -47 -96 -42 -52 -27 -68 63 -68 112 0 124
14 65 83 -36 42 -44 74 -23 95 17 17 23 15 62 -19 51 -44 95 -48 136 -12 45
40 45 95 1 135 -46 41 -69 37 -152 -23 -20 -15 -49 -5 -49 17 0 9 14 32 30 51
49 56 38 122 -25 149 -19 8 -36 13 -37 13 -2 -1 -13 -4 -24 -6z"/>
<path d="M3263 3112 c-12 -2 -34 -17 -49 -35 -34 -40 -28 -87 17 -133 27 -28
30 -36 19 -49 -17 -20 -46 -19 -62 3 -34 48 -85 53 -129 14 -25 -22 -31 -36
-31 -67 0 -31 6 -45 31 -67 41 -37 70 -35 121 7 46 39 51 40 68 23 21 -21 13
-57 -23 -97 -59 -65 -47 -81 65 -81 94 0 105 15 56 77 -38 49 -47 96 -20 107
9 4 34 -8 62 -30 39 -30 53 -35 82 -30 106 16 105 166 -1 182 -30 5 -41 1 -71
-25 -39 -34 -72 -40 -82 -15 -3 9 -6 17 -6 18 0 1 16 19 35 40 36 40 43 68 24
109 -16 34 -63 56 -106 49z"/>
<path d="M2509 2805 c-32 -17 -53 -65 -44 -97 4 -13 21 -37 37 -55 54 -56 12
-96 -47 -44 -69 61 -155 28 -155 -59 0 -87 86 -120 154 -59 43 37 70 35 74 -6
2 -23 -6 -41 -34 -73 -52 -61 -43 -72 61 -72 104 0 113 11 61 72 -28 32 -36
50 -34 73 4 41 31 43 74 6 70 -62 164 -29 164 57 0 86 -89 121 -157 62 -39
-35 -58 -38 -73 -10 -9 16 -4 26 25 58 42 47 46 88 13 127 -28 32 -83 41 -119
20z"/>
<path d="M1750 2475 c-10 -13 -6 -23 24 -62 38 -49 47 -96 20 -107 -9 -4 -34
8 -62 30 -39 30 -53 35 -82 30 -106 -16 -105 -166 1 -182 30 -5 41 -1 71 25
39 34 72 40 82 15 3 -9 6 -17 6 -18 0 -1 -16 -19 -35 -40 -36 -40 -43 -68 -24
-109 41 -89 191 -45 175 51 -3 21 -19 49 -37 68 -27 28 -30 36 -19 49 17 20
46 19 62 -3 34 -48 85 -53 129 -14 44 39 44 95 0 134 -41 37 -70 35 -121 -7
-46 -39 -51 -40 -68 -23 -21 21 -13 57 23 97 59 65 47 81 -65 81 -48 0 -71 -4
-80 -15z"/>
<path d="M3213 2483 c-22 -8 -14 -33 22 -76 36 -42 44 -74 23 -95 -17 -17 -23
-15 -62 19 -51 44 -95 48 -136 12 -45 -40 -45 -95 -1 -135 46 -41 69 -37 152
23 20 15 49 5 49 -17 0 -9 -13 -32 -30 -51 -49 -56 -38 -122 26 -149 29 -12
39 -12 67 -1 43 19 59 40 60 82 1 27 -7 43 -32 69 -57 58 -18 106 40 50 42
-40 101 -40 135 -1 45 53 20 138 -46 152 -32 7 -62 -5 -101 -42 -27 -25 -53
-23 -63 4 -7 17 7 46 48 97 41 52 26 66 -68 65 -39 0 -77 -3 -83 -6z"/>
<path d="M1750 1845 c-10 -13 -6 -23 24 -62 38 -49 47 -96 20 -107 -9 -4 -34
8 -62 30 -39 30 -53 35 -82 30 -106 -16 -105 -166 1 -182 30 -5 41 -1 71 25
38 33 57 38 76 19 17 -17 16 -20 -23 -62 -36 -40 -43 -68 -24 -109 41 -89 191
-45 175 51 -3 21 -19 49 -37 68 -27 28 -30 36 -19 49 17 20 46 19 62 -3 34
-48 85 -53 129 -14 44 39 44 95 0 134 -41 37 -70 35 -121 -7 -46 -39 -51 -40
-68 -23 -21 21 -13 57 23 97 59 65 47 81 -65 81 -48 0 -71 -4 -80 -15z"/>
<path d="M3213 1853 c-22 -8 -14 -33 22 -76 36 -42 44 -74 23 -95 -17 -17 -23
-15 -62 19 -51 44 -95 48 -136 12 -45 -40 -45 -95 -1 -135 46 -41 69 -37 152
23 20 15 49 5 49 -17 0 -9 -13 -32 -30 -51 -49 -55 -38 -122 23 -148 64 -27
128 12 130 79 1 28 -6 44 -32 70 -57 58 -18 106 40 50 42 -40 101 -40 135 -1
45 53 20 138 -46 152 -32 7 -62 -5 -101 -42 -27 -25 -53 -23 -63 3 -7 18 6 46
47 96 43 53 28 68 -67 67 -39 0 -77 -3 -83 -6z"/>
<path d="M3552 1297 c-52 -16 -126 -89 -151 -148 -33 -77 -47 -209 -34 -312
28 -205 124 -317 270 -317 203 1 313 235 183 392 -68 82 -200 107 -293 56
l-47 -27 0 28 c0 40 27 138 47 168 35 53 140 70 201 33 43 -26 77 -25 96 2 23
32 20 51 -12 81 -53 51 -174 72 -260 44z m155 -442 c33 -22 56 -80 48 -121 -7
-41 -55 -90 -93 -96 -102 -15 -175 89 -128 181 30 57 114 74 173 36z"/>
</g>
</svg>
